# xmcd
#
# Track frame offsets:
#	150
#	11533
#	25843
#	45767
#	56487
#	66090
#	71815
#	78943
#	93778
#	104801
#	120846
#	138386
#	158953
#	170557
#
# Disc length: 2431 seconds
# Revision: 4
# Processed by: cddbd v1.5.2PL0 Copyright (c) Steve Scherf et al.
# Submitted via: dBpowerAMP V12.0
#
DISCID=ad097d0e
DTITLE=Stephen Faulkner - Capturé Vivant
DYEAR=2002
DGENRE=Chanson
TTITLE0=Mon grand cheval noir d'amour
TTITLE1=Mille après mille
TTITLE2=Cajun de l'an 2000
TTITLE3=Porte poussières
TTITLE4=Valse hésitation
TTITLE5=Le mégot
TTITLE6=Les briquets
TTITLE7=Le météore
TTITLE8=La perle rare
TTITLE9=Le train maudit
TTITLE10=Troubadour
TTITLE11=Toujours un bum
TTITLE12=Si j'avais un char
TTITLE13=De bord en bord d'la semelle
EXTD=
EXTT0=
EXTT1=
EXTT2=
EXTT3=
EXTT4=
EXTT5=
EXTT6=
EXTT7=
EXTT8=
EXTT9=
EXTT10=
EXTT11=
EXTT12=
EXTT13=
PLAYORDER=
